<?xml version="1.0" encoding="UTF-8"?>
<svg width="60px" height="60px" viewBox="0 0 60 60" version="1.1" xmlns="http://www.w3.org/2000/svg" xmlns:xlink="http://www.w3.org/1999/xlink">
    <!-- Generator: Sketch 44 (41411) - http://www.bohemiancoding.com/sketch -->
    <title>doc_2</title>
    <desc>Created with Sketch.</desc>
    <defs></defs>
    <g id="Logo" stroke="none" stroke-width="1" fill="none" fill-rule="evenodd">
        <g id="doc_2">
            <rect id="Rectangle-38" stroke="#00DD61" stroke-width="2" x="8" y="9" width="36" height="50"></rect>
            <path d="M13,4 L13,6 L11,6 L13,4 Z M47,4 L49,6 L47,6 L47,4 Z M49,54 L47,56 L47,54 L49,54 Z M13,6 L13,10 L11,10 L11,4 L49,4 L49,56 L43,56 L43,54 L47,54 L47,6 L13,6 Z M47,6 L13,6 L13,10 L11,10 L11,4 L49,4 L49,56 L43,56 L43,54 L47,54 L47,6 Z" id="Rectangle-38-Copy" fill="#00DD61" fill-rule="nonzero"></path>
            <path d="M17,0 L17,2 L15,2 L17,0 Z M51,0 L53,2 L51,2 L51,0 Z M51,50 L53,50 L51,52 L51,50 Z M17,2 L17,6 L15,6 L15,0 L53,0 L53,52 L48,52 L48,50 L51,50 L51,2 L17,2 Z M51,50 L51,2 L17,2 L17,6 L15,6 L15,0 L53,0 L53,52 L48,52 L48,50 L51,50 Z" id="Rectangle-38-Copy-2" fill="#00DD61" fill-rule="nonzero"></path>
            <rect id="Rectangle-31" fill="#00DD61" x="13" y="18" width="26" height="2"></rect>
            <rect id="Rectangle-31-Copy" fill="#00DD61" x="13" y="24" width="26" height="2"></rect>
            <rect id="Rectangle-31-Copy-5" fill="#00DD61" x="13" y="48" width="18" height="2"></rect>
            <rect id="Rectangle-31-Copy-2" fill="#00DD61" x="13" y="30" width="26" height="2"></rect>
            <rect id="Rectangle-31-Copy-3" fill="#00DD61" x="13" y="36" width="26" height="2"></rect>
            <rect id="Rectangle-31-Copy-4" fill="#00DD61" x="13" y="42" width="26" height="2"></rect>
        </g>
    </g>
</svg>