<?xml version="1.0" encoding="UTF-8"?>
<svg width="60px" height="60px" viewBox="0 0 60 60" version="1.1" xmlns="http://www.w3.org/2000/svg" xmlns:xlink="http://www.w3.org/1999/xlink">
    <!-- Generator: Sketch 44 (41411) - http://www.bohemiancoding.com/sketch -->
    <title>doc_1</title>
    <desc>Created with Sketch.</desc>
    <defs></defs>
    <g id="Logo" stroke="none" stroke-width="1" fill="none" fill-rule="evenodd">
        <g id="doc_1">
            <path d="M10,1 L10,59 L50,59 L50,12.4142136 L38.5857864,1 L10,1 Z" id="Rectangle-27" stroke="#00DD61" stroke-width="2"></path>
            <path d="M39,14 L37,12 L39,12 L39,14 Z M39,2 L39,12 L49,12 L51,14 L37,14 L37,0 L39,2 Z M49,12 L51,14 L37,14 L37,0 L39,2 L39,12 L49,12 Z" id="Rectangle-30" fill="#00DD61" fill-rule="nonzero"></path>
            <rect id="Rectangle-31" fill="#00DD61" x="17" y="18" width="26" height="2"></rect>
            <rect id="Rectangle-31-Copy" fill="#00DD61" x="17" y="24" width="26" height="2"></rect>
            <rect id="Rectangle-31-Copy-2" fill="#00DD61" x="17" y="30" width="26" height="2"></rect>
            <rect id="Rectangle-31-Copy-3" fill="#00DD61" x="17" y="36" width="26" height="2"></rect>
            <rect id="Rectangle-31-Copy-4" fill="#00DD61" x="17" y="42" width="26" height="2"></rect>
            <rect id="Rectangle-31-Copy-5" fill="#00DD61" x="17" y="48" width="18" height="2"></rect>
        </g>
    </g>
</svg>