<?xml version="1.0" encoding="UTF-8"?>
<svg width="60px" height="60px" viewBox="0 0 60 60" version="1.1" xmlns="http://www.w3.org/2000/svg" xmlns:xlink="http://www.w3.org/1999/xlink">
    <!-- Generator: Sketch 44 (41411) - http://www.bohemiancoding.com/sketch -->
    <title>edit</title>
    <desc>Created with Sketch.</desc>
    <defs></defs>
    <g id="Logo" stroke="none" stroke-width="1" fill="none" fill-rule="evenodd">
        <g id="edit">
            <path d="M11,2 L11,58 L49,58 L49,12.8284271 L38.1715729,2 L11,2 Z M9,0 L39,0 L51,12 L51,60 L9,60 L9,0 Z M49,18 L49,44 L51,44 L51,18 L49,18 Z" id="Combined-Shape" fill="#00DD61" fill-rule="nonzero"></path>
            <path d="M39,14 L37,12 L39,12 L39,14 Z M39,2 L39,12 L49,12 L51,14 L37,14 L37,0 L39,2 Z M49,12 L51,14 L37,14 L37,0 L39,2 L39,12 L49,12 Z" id="Rectangle-30" fill="#00DD61" fill-rule="nonzero"></path>
            <g id="Group" transform="translate(41.000000, 39.000000) rotate(-45.000000) translate(-41.000000, -39.000000) translate(19.000000, 35.000000)">
                <path d="M5.19945092,1 L2.19755934,4.00189158 L5.19566776,7 L43,7 L43,1 L5.19945092,1 Z" id="Rectangle-33" stroke="#00DD61" stroke-width="2"></path>
                <rect id="Rectangle" fill="#00DD61" x="5.41421356" y="-1.11022302e-16" width="2" height="8"></rect>
                <rect id="Rectangle" fill="#00DD61" x="38" y="0" width="2" height="8"></rect>
            </g>
            <rect id="Rectangle-31" fill="#00DD61" x="17" y="18" width="26" height="2"></rect>
            <rect id="Rectangle-31-Copy" fill="#00DD61" x="17" y="24" width="26" height="2"></rect>
            <rect id="Rectangle-31-Copy-2" fill="#00DD61" x="17" y="30" width="18" height="2"></rect>
        </g>
    </g>
</svg>