<?xml version="1.0" encoding="UTF-8" standalone="no"?>
<svg width="124px" height="36px" viewBox="0 0 124 36" version="1.1" xmlns="http://www.w3.org/2000/svg" xmlns:xlink="http://www.w3.org/1999/xlink">
    <!-- Generator: Sketch 44 (41411) - http://www.bohemiancoding.com/sketch -->
    <title>logo</title>
    <desc>Created with Sketch.</desc>
    <defs></defs>
    <g id="Logo" stroke="none" stroke-width="1" fill="none" fill-rule="evenodd">
        <g id="logo">
            <g>
                <text id="draftuj" font-family="OpenSans-Bold, Open Sans" font-size="20" font-weight="bold" fill="#2C3E34">
                    <tspan x="52" y="25">draftuj</tspan>
                </text>
                <path d="M16,32 L36,32 L36,4 L16,4 L16,0 L40,0 L40,2 L40,36 L38,36 L14,36 L12,36 L12,24 L16,24 L16,32 Z M20,24 L32,24 L32,28 L20,28 L20,24 Z M20,16 L32,16 L32,20 L20,20 L20,16 Z M4,16 L16,16 L16,20 L4,20 L4,16 Z M0,0 L12,0 L12,4 L0,4 L0,0 Z M8,8 L16,8 L16,12 L8,12 L8,8 Z M20,8 L32,8 L32,12 L20,12 L20,8 Z" id="Combined-Shape" fill="#00DD61"></path>
            </g>
        </g>
    </g>
</svg>