<?xml version="1.0" encoding="UTF-8"?>
<svg width="60px" height="60px" viewBox="0 0 60 60" version="1.1" xmlns="http://www.w3.org/2000/svg" xmlns:xlink="http://www.w3.org/1999/xlink">
    <!-- Generator: Sketch 44 (41411) - http://www.bohemiancoding.com/sketch -->
    <title>pdf</title>
    <desc>Created with Sketch.</desc>
    <defs></defs>
    <g id="Logo" stroke="none" stroke-width="1" fill="none" fill-rule="evenodd">
        <g id="pdf">
            <path d="M10,1 L10,59 L50,59 L50,12.4142136 L38.5857864,1 L10,1 Z" id="Rectangle-27" stroke="#00DD61" stroke-width="2"></path>
            <path d="M39,14 L37,12 L39,12 L39,14 Z M39,2 L39,12 L49,12 L51,14 L37,14 L37,0 L39,2 Z" id="Rectangle-30" fill="#00DD61" fill-rule="nonzero"></path>
            <path d="M15,19 L15,37 L45,37 L45,19 L15,19 Z" id="Rectangle-37" stroke="#00DD61" stroke-width="2"></path>
            <text id="PDF" font-family="OpenSans-Extrabold, Open Sans" font-size="11" font-weight="600" letter-spacing="-0.0659999996" fill="#00DD61">
                <tspan x="19.6226816" y="32">PDF</tspan>
            </text>
            <g id="Group" transform="translate(30.000000, 46.000000) scale(1, -1) translate(-30.000000, -46.000000) translate(26.000000, 40.000000)" fill="#00DD61">
                <rect id="Rectangle-36" x="3" y="0" width="2" height="12"></rect>
                <path d="M1,0 L0,0 L0,8 L2,8 L2,2 L8,2 L8,0 L1,0 Z" id="Combined-Shape" transform="translate(4.000000, 4.000000) rotate(-315.000000) translate(-4.000000, -4.000000) "></path>
            </g>
        </g>
    </g>
</svg>